PathFileType	4	(X/Y/Z)	pose_F01_0-96.trc
DataRate	CameraRate	NumFrames	NumMarkers	Units	OrigDataRate	OrigDataStartFrame	OrigNumFrames
30	30	7	21	m	30	48	96
Frame#	Time	CHip			RHip			RKnee			RAnkle			RBigToe			RSmallToe			RHeel			LHip			LKnee			LAnkle			LBigToe			LSmallToe			LHeel			Neck			Nose			RShoulder			RElbow			RWrist			LShoulder			LElbow			LWrist			
		X1	Y1	Z1	X2	Y2	Z2	X3	Y3	Z3	X4	Y4	Z4	X5	Y5	Z5	X6	Y6	Z6	X7	Y7	Z7	X8	Y8	Z8	X9	Y9	Z9	X10	Y10	Z10	X11	Y11	Z11	X12	Y12	Z12	X13	Y13	Z13	X14	Y14	Z14	X15	Y15	Z15	X16	Y16	Z16	X17	Y17	Z17	X18	Y18	Z18	X19	Y19	Z19	X20	Y20	Z20	X21	Y21	Z21	
48	1.6	-0.12434727019212909	1.8728653616147746	-0.5407958961423845	-0.13796010391950386	1.8684612405727739	-0.4810453591629215	-0.18099730437357506	1.7363831362868352	-0.45336639944523055	-0.16119254322081147	1.5935979865399026	-0.38990583113292887							-0.18580130805271616	1.566229261634397	-0.42841338819252117	-0.1093566401787906	1.8763020119439358	-0.6091934510218046	-0.12149101747666957	1.734250901354298	-0.598639439504223	-0.10561313480720125	1.600915366286314	-0.5676331472696202	-0.13119608394529295	1.5685770337478582	-0.608935463306286	-0.11309490061811293	1.5745586161609522	-0.6242469462307687	-0.10018870403502163	1.5940675543674023	-0.554818013454211	-0.13347761423536056	2.035045975917336	-0.5542041754014346	-0.1531860140411756	2.1077528330210766	-0.5752275815713093	-0.15311384639107745	2.02883088945952	-0.4806848930661465	-0.13977900122575576	1.9494242903329795	-0.4221347115313196	-0.15132156055892654	1.8804846271540108	-0.36444328873603593	-0.11146974933352287	2.0466479908278727	-0.6371088772457769	-0.14722897881642671	2.03116042974005	-0.7163518464533603	-0.14978433967531618	2.057129750592734	-0.6377491537112705
49	1.6333333333333333	-0.11361688637884565	1.8665373636474796	-0.5390734868049839	-0.12854690884547404	1.8632870202597493	-0.47367865391568387	-0.18145395193491723	1.7369235812533588	-0.44860380823088286	-0.1500155208960681	1.5976165760069574	-0.3814270620438646							-0.18580130805271616	1.566229261634397	-0.42841338819252117	-0.10021757223470677	1.8695581205089775	-0.5933284555825286	-0.1256109749368121	1.7328716554834014	-0.6024728838342838	-0.10473034214088565	1.598226898772265	-0.5638120638114869	-0.13129053987005992	1.5688047942393906	-0.6088739205719507	-0.11505837079633918	1.5738213574566078	-0.6219203938035293	-0.09927811848561528	1.591402245154176	-0.5511746166755878	-0.13263691289637927	2.028592422535982	-0.5497713805981143	-0.16126538951944908	2.093431386958354	-0.5812990788682455	-0.14946646361007127	2.022192909290842	-0.47562279080127073	-0.14174640813980915	1.9410478923291121	-0.4180411407918679	-0.14968221509459115	1.8688867505222144	-0.35525433993034516	-0.11378736692415414	2.03517254938931	-0.6329292585193834	-0.15460796791517575	2.01538996381221	-0.6877633673258993	-0.16413873796875333	2.025588867034173	-0.6386286784068999
50	1.6666666666666667	-0.10552031597645498	1.8584591457087745	-0.525962199013799	-0.11908773655165579	1.8567194833974536	-0.46618035030596433	-0.17784870983157464	1.7323857104647333	-0.45184104522830654	-0.13883849857132474	1.6016351654740124	-0.3729482929548004							-0.18580130805271616	1.566229261634397	-0.42841338819252117	-0.09174405955475846	1.8604770856386592	-0.5890433517666476	-0.1275187577686535	1.7302008127714539	-0.600062303801008	-0.10556853352129753	1.598310718738246	-0.5672083179598004	-0.12940918782305552	1.568904717739573	-0.6023941333905724	-0.11190654201736572	1.5729970910540179	-0.6211761353291189	-0.09844146248823929	1.5918210367033763	-0.5478057484902051	-0.1390231499741724	2.0112487025456884	-0.5489775585924602	-0.16797759138899765	2.072190796653815	-0.5712899492164712	-0.15280401224375553	2.005915865554636	-0.4643415599264553	-0.14581680734470315	1.9251464342719546	-0.409966282372028	-0.15430293456605096	1.8528042453049969	-0.3418140070126041	-0.12310402900325879	2.0181487226218997	-0.6330316353454193	-0.1787192984421927	1.9753361657120572	-0.6620228356202966	-0.1784931362621905	1.9940479834756115	-0.6395082031025292
51	1.7	-0.10440145847583258	1.8402601384011883	-0.5160836022298104	-0.11680250071086122	1.8360186856077505	-0.46136208544732027	-0.1661226986377552	1.7152509044905935	-0.4536432242064332	-0.12766147624658136	1.6056537549410674	-0.3644695238657362							-0.11634958099701195	1.5987458521086844	-0.3579780376653811	-0.08825714172696064	1.8434608783060438	-0.5697375849412353	-0.13287864731421759	1.7286314340552467	-0.5981898783571845	-0.10349505964878056	1.598434691458185	-0.5696312382014894	-0.12946648773300531	1.5686360681064475	-0.6022672801375811	-0.11408507367541221	1.5727325337133402	-0.6187418818408764	-0.09516430092332533	1.5920903555099075	-0.5558127311688756	-0.15364797388881657	1.9793823156645156	-0.5347809963365548	-0.18675931025930523	2.0368652451317657	-0.5534551827048	-2.0535691131440106	1.9084118213108456	1.7303849863607617	-0.1597563788425518	1.894565884291348	-0.385705270107828	-0.16690674189629032	1.8215737535837202	-0.32224432070286546	-0.1363255551013672	1.9864911167996713	-0.6223996666082638	-0.17102853989160371	1.9220560554763617	-0.6592014567226658	-0.19284753455562764	1.9625070999170504	-0.6403877277981586
52	1.7333333333333334	-0.10106020425834636	1.8272913021607307	-0.5038486320498186	-0.11324683130378765	1.8242738961765137	-0.4399600848961266	-0.1636143422395876	1.7109824103777782	-0.428599754388876	-0.12766147624658136	1.6056537549410674	-0.3644695238657362							-0.11673602961844808	1.5958223791451922	-0.35254174302052493	-0.08858602072058835	1.8300487577737596	-0.5619483591083853	-0.13232192542925952	1.7245656462247938	-0.585473297480858	-0.10325547948906441	1.599758282578071	-0.5701209560385294	-0.13155559030896552	1.568515813949516	-0.5999391135119008	-0.11434137759265113	1.5741504136625195	-0.6185066925444735	-0.09467783597452825	1.5918384144560036	-0.5565830170731462	-0.1568287867269556	1.9641402534970278	-0.5231889364095642	-0.1961957648712743	2.021479599970962	-0.5437232890666016	-0.1690023927323529	1.9573433296101752	-0.4347567053518797	-0.16343559922320863	1.8757475051663088	-0.37703252014342065	-0.17112524143239358	1.797765371971068	-0.30241147574818134	-0.14108430310676418	1.9709270607301916	-0.6161851888334041	-0.15833051243706636	1.8998152281646719	-0.6606440962272401	-0.2002539851896455	1.9373209354414074	-0.6119952700230219
53	1.7666666666666666	-0.09735786668350177	1.8281232269364098	-0.4904522714902545	-0.11134988258049934	1.8238653281864052	-0.43302401137024393	-0.1619243607706132	1.710821755314843	-0.4260058681909667	-0.12766147624658136	1.6056537549410674	-0.3644695238657362							-0.11606193507163605	1.5955002257880437	-0.3526532595957791	-0.08588815817043353	1.8310731084804732	-0.5520557321697803	-0.13227960673702835	1.7271868951660228	-0.5772963691307194	-0.1051160594216959	1.6009271174459987	-0.5684089397172605	-0.13160029137408383	1.5685008604816586	-0.5999162848666011	-0.11636420248698395	1.5737809378970264	-0.6162320360568448	-0.09671876609609868	1.5917337071042792	-0.554348067934321	-0.15467732452777905	1.9598927497922713	-0.514921964856147	-0.19918668372348033	2.011500588252848	-0.5417093180794971	-0.16686736279382616	1.9519002127831302	-0.4264470545692848	-0.16457776872174618	1.8701506567655042	-0.3732988557697396	-0.17601415652473343	1.7892409334178492	-0.31306971559327995	-0.13943887806736321	1.9681748360606268	-0.6001156461791389	-0.15334194370218537	1.8898683815670614	-0.6423594323905395	-0.1881980227554374	1.9401582365842411	-0.5699643509221041
54	1.8	-0.09983083483031256	1.8299509996201555	-0.4829535140814723	-0.11402036613924107	1.826073034283603	-0.42549815441531413	-0.16185878892561234	1.7135940982287428	-0.41736372160905183	-0.12766147624658136	1.6056537549410674	-0.3644695238657362							-0.11538784052482401	1.595178072430895	-0.35276477617103325	-0.08502494108639465	1.8341348894043676	-0.5402268916829854	-0.1312355917554144	1.7255583883824441	-0.5738657993125775	-0.1053390109888982	1.5996155038255697	-0.5677867076828493	-0.1304850988589435	1.5699064760061865	-0.5972076857506355	-0.11552738055632698	1.5738296176654663	-0.6128476789655419	-0.09649413356893247	1.5902911110691944	-0.5546110333981243	-0.15237920985480533	1.965933615910115	-0.5089018524125224	-0.19789684108546396	2.011944433459325	-0.5372088292207648	-0.16371399727212058	1.9582207386059511	-0.4262813734299067	-0.1598714256563278	1.8741657161321945	-0.3690548129622497	-0.18243961372060116	1.7963385398306562	-0.3295595956144941	-0.13445030473185413	1.9717588975786848	-0.5924882780501597	-0.1520398053905836	1.8935858889185906	-0.6394555336320532	-0.18821300608470234	1.9380089927276551	-0.571494562178259
